
        <svg xmlns="http://www.w3.org/2000/svg" xmlns:xlink="http://www.w3.org/1999/xlink" version="1.1" width="3171.4285714285716" 
        height="2394.9317436627507" viewBox="0 0 3171.4285714285716 2394.9317436627507">
			
			<g transform="scale(8.57142857142857) translate(10, 10)">
				<defs id="SvgjsDefs2953"></defs><g id="SvgjsG2954" featureKey="JjiT9w-0" transform="matrix(2.1134066330964716,0,0,2.1134066330964716,69.31428603676598,-13.12901991799327)" fill="#3fbac2"> <path xmlns="http://www.w3.org/2000/svg" d="m60.125 32.414c-0.89844 0-1.6875 0.59766-1.9258 1.4648 0 0-2.2891 8.2422-4.043 14.539-1.3867 4.9844 1.2969 10.191 6.1562 11.961l2.9844 1.0859c1.0938 9.2969-0.15625 19.363-3.1016 30.004-0.16406 0.60156-0.042968 1.2461 0.33594 1.7422 0.37891 0.49609 0.96875 0.78906 1.5938 0.78906h11c0.84766 0 1.6055-0.53516 1.8867-1.3359 6.2539-17.758 7.9414-34.789 8.1172-51.59v-0.003907c0.019532-2.2852-0.87891-4.4883-2.4883-6.1094-1.6094-1.625-3.8047-2.5352-6.0898-2.5352-6.1562-0.007812-14.426-0.007812-14.426-0.007812zm-34.281-25.332c-0.41406-0.60547-1.125-0.93359-1.8555-0.85938-0.73047 0.074219-1.3594 0.53906-1.6406 1.2188-10.969 26.211-3.0664 64.324 3.2773 78.895 3.0547 7.0156 8.2812 8.3867 11.93 6.8008 3.6289-1.5742 6.3008-6.4141 4.0977-12.918-1.582-4.668-2.7266-22.176 0.20312-33.582 0.59375-2.3125 1.3516-4.3633 2.3359-5.9688 0.82031-1.332 1.7695-2.3438 2.9727-2.8008 4.9805-1.8789 7.8867-4.0938 9.4102-6.9492 1.5156-2.8398 1.7031-6.4141 0.85547-11.266-1.7461-9.9961-11.18-9.5156-18.039-8.2188-9.2266 1.7422-13.547-4.3516-13.547-4.3516zm35.801 29.332c2.6719 0 8.3594 0.003907 12.902 0.007813h0.003906c1.2227 0 2.3906 0.48828 3.25 1.3555 0.85938 0.86719 1.3359 2.0391 1.3281 3.2617-0.16797 15.957-1.7109 32.133-7.4258 48.965h-6.9766c2.7227-10.734 3.6953-20.891 2.3828-30.277-0.10156-0.73047-0.60156-1.3477-1.2969-1.6016 0 0-1.9023-0.69141-4.1289-1.5-2.8984-1.0547-4.4961-4.1562-3.6719-7.1289l3.6367-13.074zm-36.711-24.562c2.6797 2.2305 7.6641 4.9375 15.199 3.5156 2.1875-0.41406 4.7344-0.80859 7.0938-0.60547 1.5039 0.13281 2.9297 0.5 4.0586 1.3867 1.0977 0.86328 1.8594 2.2148 2.207 4.1953 0.65234 3.7383 0.72656 6.5078-0.44141 8.6953-1.1602 2.1719-3.5078 3.6602-7.293 5.0898-3.6406 1.375-6.2773 5.6953-7.7695 11.516-3.125 12.176-1.8047 30.871-0.11719 35.859 1.332 3.9297 0.28906 7.0117-1.9023 7.9648-2.1719 0.94531-4.8516-0.55078-6.6719-4.7266-5.8633-13.469-13.215-47.883-4.3594-72.887zm4.5273 41.355c-3.3125 0-6 2.6875-6 6s2.6875 6 6 6 6-2.6875 6-6-2.6875-6-6-6zm0 4c1.1055 0 2 0.89453 2 2s-0.89453 2-2 2c-1.1055 0-2-0.89453-2-2s0.89453-2 2-2zm40-15.207c-3.3125 0-6 2.6875-6 6s2.6875 6 6 6 6-2.6875 6-6-2.6875-6-6-6zm0 4c1.1055 0 2 0.89453 2 2s-0.89453 2-2 2c-1.1055 0-2-0.89453-2-2s0.89453-2 2-2zm-41-13.586c-3.3125 0-6 2.6875-6 6s2.6875 6 6 6 6-2.6875 6-6-2.6875-6-6-6zm0 4c1.1055 0 2 0.89453 2 2 0 1.1055-0.89453 2-2 2-1.1055 0-2-0.89453-2-2 0-1.1055 0.89453-2 2-2zm14-17.414c-3.3125 0-6 2.6875-6 6s2.6875 6 6 6 6-2.6875 6-6-2.6875-6-6-6zm0 4c1.1055 0 2 0.89453 2 2s-0.89453 2-2 2c-1.1055 0-2-0.89453-2-2s0.89453-2 2-2z" fill-rule="evenodd"></path></g><g id="SvgjsG2955" featureKey="j7RXiA-0" transform="matrix(2.2476239227865302,0,0,2.2476239227865302,-1.7531471313437594,194.76188252956857)" fill="#f5f5f5"><path d="M7.42 5.16 q0.24 0.2 0.24 0.54 l0 1.5 q0 0.26 -0.15 0.45 t-0.41 0.25 q-1.28 0.26 -2.18 1.22 q-1.22 1.28 -1.22 3.33 t1.22 3.35 q0.9 0.94 2.18 1.2 q0.26 0.06 0.41 0.25 t0.15 0.45 l0 1.5 q0 0.32 -0.24 0.54 q-0.22 0.16 -0.46 0.16 l-0.12 0 q-2.32 -0.38 -3.98 -2.1 q-2.08 -2.14 -2.08 -5.33 t2.08 -5.37 q1.62 -1.68 3.98 -2.08 q0.32 -0.06 0.58 0.14 z M13.7 7.1 q2.08 2.18 2.08 5.37 t-2.08 5.33 q-1.66 1.72 -3.98 2.1 l-0.12 0 q-0.24 0 -0.46 -0.16 q-0.24 -0.22 -0.24 -0.54 l0 -1.5 q0 -0.26 0.15 -0.45 t0.41 -0.25 q1.28 -0.26 2.18 -1.2 q1.22 -1.3 1.22 -3.35 t-1.22 -3.33 q-0.9 -0.96 -2.18 -1.22 q-0.26 -0.06 -0.41 -0.25 t-0.15 -0.45 l0 -1.5 q0 -0.34 0.25 -0.54 t0.57 -0.14 q2.36 0.4 3.98 2.08 z M27.599999999999998 14.02 l2.98 4.58 q0.1 0.16 0.11 0.36 t-0.08 0.36 t-0.26 0.26 t-0.35 0.1 l-1.8 0 q-0.18 0 -0.34 -0.09 t-0.24 -0.23 l-3 -4.78 l-3.54 0 l0 4.4 q0 0.28 -0.21 0.49 t-0.49 0.21 l-1.5 0 q-0.28 0 -0.49 -0.21 t-0.21 -0.49 l0 -13.28 q0 -0.28 0.21 -0.49 t0.49 -0.21 l6.36 0 q2.3 0 3.73 1.31 t1.43 3.55 q0 1.44 -0.63 2.47 t-1.85 1.55 q-0.08 0.04 -0.26 0.12 z M21.08 7.82 l0 3.94 l3.9 0 q1.72 0 2.34 -0.98 q0.2 -0.36 0.2 -0.92 q0 -0.94 -0.62 -1.48 q-0.68 -0.56 -1.84 -0.56 l-3.98 0 z M43.14 5 q0.28 0 0.48 0.21 t0.2 0.49 l0 1.44 q0 0.28 -0.2 0.49 t-0.48 0.21 l-3.94 0 l0 11.14 q0 0.28 -0.21 0.49 t-0.49 0.21 l-1.5 0 q-0.3 0 -0.5 -0.21 t-0.2 -0.49 l0 -11.14 l-3.94 0 q-0.28 0 -0.49 -0.21 t-0.21 -0.49 l0 -1.44 q0 -0.28 0.21 -0.49 t0.49 -0.21 l10.78 0 z M57.160000000000004 5 q0.28 0 0.48 0.21 t0.2 0.49 l0 13.28 q0 0.28 -0.2 0.49 t-0.48 0.21 l-1.52 0 q-0.28 0 -0.48 -0.21 t-0.2 -0.49 l0 -5.22 l-6.34 0 l0 5.22 q0 0.28 -0.21 0.49 t-0.49 0.21 l-1.5 0 q-0.28 0 -0.49 -0.21 t-0.21 -0.49 l0 -13.28 q0 -0.28 0.21 -0.49 t0.49 -0.21 l1.5 0 q0.28 0 0.49 0.21 t0.21 0.49 l0 5.2 l6.34 0 l0 -5.2 q0 -0.28 0.2 -0.49 t0.48 -0.21 l1.52 0 z M67.68 5 q3.28 0 5.38 2.2 q2.06 2.16 2.06 5.3 t-2.06 5.3 q-2.1 2.2 -5.38 2.2 t-5.38 -2.2 q-2.06 -2.16 -2.06 -5.3 t2.06 -5.3 q2.1 -2.2 5.38 -2.2 z M67.68 17.14 q2.06 0 3.32 -1.32 q1.22 -1.28 1.22 -3.31 t-1.24 -3.34 t-3.3 -1.31 t-3.3 1.31 t-1.24 3.34 t1.22 3.31 q1.26 1.32 3.32 1.32 z M88.08000000000001 12.18 q1.04 0.64 1.52 1.84 q0.28 0.64 0.28 1.58 q0 1.46 -0.78 2.45 t-2.28 1.47 q-0.94 0.32 -2.22 0.32 l-6.38 0 q-0.28 0 -0.49 -0.21 t-0.21 -0.49 l0 -1.44 q0 -0.3 0.21 -0.51 t0.49 -0.21 l6.54 0 q1.16 0 1.72 -0.42 q0.48 -0.4 0.48 -1.09 t-0.5 -1.13 q-0.62 -0.54 -1.86 -0.54 l-6.38 0 q-0.28 0 -0.49 -0.21 t-0.21 -0.51 l0 -1.38 q0 -0.28 0.21 -0.49 t0.49 -0.21 l6.02 0 q0.86 0 1.34 -0.3 q0.34 -0.2 0.54 -0.58 q0.14 -0.28 0.14 -0.65 t-0.1 -0.67 q-0.08 -0.24 -0.28 -0.44 q-0.44 -0.5 -1.46 -0.5 l-6.2 0 q-0.28 0 -0.49 -0.21 t-0.21 -0.51 l0 -1.44 q0 -0.28 0.21 -0.49 t0.49 -0.21 l6.02 0 q2.48 0 3.82 1.4 q1.14 1.14 1.14 2.86 q0 1.84 -1.12 2.92 z M99.68 5.42 l5.6 13.22 q0.1 0.16 0.1 0.34 q0 0.28 -0.2 0.49 t-0.5 0.21 l-1.66 0 q-0.22 0 -0.39 -0.11 t-0.25 -0.31 l-1.46 -3.44 l-5.66 0 l-1.44 3.44 q-0.08 0.2 -0.25 0.31 t-0.39 0.11 l-1.66 0 q-0.18 0 -0.34 -0.09 t-0.25 -0.23 t-0.11 -0.31 t0.06 -0.33 l5.64 -13.3 q0.08 -0.2 0.25 -0.31 t0.39 -0.11 l1.88 0 q0.22 0 0.39 0.11 t0.25 0.31 z M98.10000000000001 9.06 l-1.66 3.98 l3.32 0 z M116.80000000000001 12.42 q0.84 0.54 1.29 1.32 t0.45 1.74 q0 2.2 -1.7 3.42 q-1.58 1.1 -4.26 1.1 q-3.04 0 -4.7 -1.32 q-1.52 -1.22 -1.74 -3.44 q-0.04 -0.32 0.18 -0.54 t0.52 -0.22 l1.56 0 q0.28 0 0.48 0.18 t0.22 0.46 q0.04 0.52 0.27 0.89 t0.71 0.65 q0.92 0.52 2.52 0.52 q1.38 0 2.14 -0.32 q0.58 -0.26 0.78 -0.7 q0.12 -0.24 0.12 -0.62 q0 -0.24 -0.09 -0.4 t-0.29 -0.3 q-0.56 -0.38 -1.48 -0.66 q-0.8 -0.24 -2.14 -0.56 q-1.22 -0.26 -2.3 -0.7 q-1.22 -0.52 -1.92 -1.24 q-0.88 -0.88 -0.88 -2.3 q0 -1.98 1.5 -3.2 q1.46 -1.18 4.22 -1.18 t4.34 1.32 q1.48 1.22 1.58 3.14 q0.04 0.28 -0.18 0.52 q-0.24 0.2 -0.5 0.2 l-1.56 0 q-0.26 0 -0.46 -0.17 t-0.22 -0.43 q-0.06 -0.52 -0.34 -0.86 q-0.4 -0.5 -1.28 -0.74 q-0.6 -0.18 -1.53 -0.18 t-1.48 0.19 t-0.81 0.41 t-0.32 0.44 q-0.1 0.34 -0.1 0.64 q0 0.16 0.18 0.34 q0.36 0.32 0.8 0.48 q0.56 0.24 1.38 0.44 t1.71 0.42 t1.69 0.48 q0.94 0.32 1.64 0.78 z M131.32000000000002 5 q0.3 0 0.5 0.21 t0.2 0.49 l0 1.44 q0 0.28 -0.2 0.49 t-0.5 0.21 l-7.56 0 l0 3.06 l6.68 0 q0.3 0 0.5 0.21 t0.2 0.49 l0 1.46 q0 0.28 -0.2 0.49 t-0.5 0.21 l-6.68 0 l0 3.08 l7.56 0 q0.3 0 0.5 0.21 t0.2 0.49 l0 1.44 q0 0.28 -0.2 0.49 t-0.5 0.21 l-9.76 0 q-0.28 0 -0.49 -0.21 t-0.21 -0.49 l0 -13.28 q0 -0.28 0.21 -0.49 t0.49 -0.21 l9.76 0 z M151.8 18.86 q0.14 0.32 -0.07 0.65 t-0.57 0.33 l-13.32 0 q-0.18 0 -0.34 -0.09 t-0.24 -0.23 q-0.22 -0.32 -0.06 -0.66 l0.62 -1.46 q0.08 -0.2 0.26 -0.32 t0.38 -0.12 l9.32 0 l-3.28 -7.84 l-2.68 6.4 q-0.08 0.2 -0.25 0.31 t-0.39 0.11 l-1.68 0 q-0.38 0 -0.6 -0.32 q-0.08 -0.14 -0.1 -0.32 t0.04 -0.34 l4.06 -9.52 q0.08 -0.2 0.25 -0.32 t0.39 -0.12 l1.92 0 q0.22 0 0.39 0.12 t0.25 0.32 z M155.8 10.94 q0.3 0 0.5 0.21 t0.2 0.51 l0 7.48 q0 0.28 -0.2 0.49 t-0.5 0.21 l-1.52 0 q-0.28 0 -0.49 -0.21 t-0.21 -0.49 l0 -7.48 q0 -0.3 0.21 -0.51 t0.49 -0.21 l1.52 0 z M155.8 5 q0.3 0 0.5 0.21 t0.2 0.49 l0 3.7 q0 0.3 -0.2 0.51 t-0.5 0.21 l-1.52 0 q-0.28 0 -0.49 -0.21 t-0.21 -0.51 l0 -3.7 q0 -0.28 0.21 -0.49 t0.49 -0.21 l1.52 0 z"></path></g><g id="SvgjsG2956" featureKey="XxmBkf-0" transform="matrix(0.6322968228400467,0,0,0.6322968228400467,5.773344202885649,246.53513972837428)" fill="#3fbac2"><path d="M6.32 12.08 q1.28 0 2.1 -0.63 t0.84 -1.87 q0 -1.16 -0.82 -1.85 t-2.18 -0.69 l-3 0 l0 5.04 l3.06 0 z M5.98 5.84 q2.16 0 3.36 0.96 t1.24 2.78 q0 1.7 -1.16 2.69 t-3.02 1.01 l-3.14 0 l0 6.72 l-1.32 0 l0 -14.16 l4.04 0 z M21.196 12.08 q1.54 0 2.38 -0.69 t0.84 -1.83 t-0.82 -1.82 t-2.44 -0.7 l-2.86 0 l0 5.04 l2.9 0 z M20.796 5.84 q4.9 0 4.94 3.72 q0 3.14 -3.62 3.64 l4.12 6.8 l-1.5 0 l-3.98 -6.72 l-2.46 0 l0 6.72 l-1.32 0 l0 -14.16 l3.82 0 z M41.052 5.84 l0 1.2 l-7.34 0 l0 5.04 l6.88 0 l0 1.2 l-6.88 0 l0 5.52 l7.66 0 l0 1.2 l-8.98 0 l0 -14.16 l8.66 0 z M54.208 5.48 q3.14 0 4.88 2.22 l-1.08 0.9 q-0.6 -0.9 -1.6 -1.41 t-2.2 -0.51 q-2.64 0 -4.3 1.74 t-1.7 4.5 q0 2.74 1.67 4.47 t4.33 1.77 q1.14 0 2.32 -0.57 t1.86 -1.63 l1.08 0.82 q-1.88 2.58 -5.26 2.58 q-3.28 -0.02 -5.27 -2.12 t-2.05 -5.32 q0 -3.26 2.05 -5.33 t5.27 -2.11 z M66.76400000000001 5.84 l0 14.16 l-1.32 0 l0 -14.16 l1.32 0 z M78.24000000000001 5.48 q2.46 0 3.86 1.78 l-1.14 0.82 q-1.04 -1.4 -2.76 -1.4 q-1.4 0 -2.27 0.72 t-0.91 1.96 q0 1.08 0.66 1.75 t2.3 1.13 q2.16 0.64 2.88 1.13 t1.09 1.21 t0.37 1.8 q0 1.72 -1.23 2.83 t-3.17 1.15 q-3.06 0 -4.6 -2.14 l1.26 -0.84 q1.06 1.76 3.24 1.78 q1.42 0 2.3 -0.79 t0.88 -1.99 q0 -0.7 -0.25 -1.15 t-0.76 -0.78 t-1.3 -0.6 t-1.85 -0.63 q-1.6 -0.52 -2.37 -1.46 t-0.77 -2.4 q0 -1.72 1.29 -2.8 t3.25 -1.08 z M90.19600000000001 5.84 l0 14.16 l-1.32 0 l0 -14.16 l1.32 0 z M98.03200000000001 12.92 q0 2.7 1.66 4.45 t4.34 1.79 q2.7 0 4.34 -1.77 t1.66 -4.47 q0 -2.74 -1.64 -4.47 t-4.38 -1.77 q-2.68 0 -4.32 1.76 t-1.66 4.48 z M104.03200000000001 5.48 q2.16 0 3.82 0.95 t2.57 2.66 t0.93 3.83 q0 3.26 -2.06 5.33 t-5.26 2.11 q-3.22 0 -5.24 -2.09 t-2.08 -5.35 q0.02 -3.26 2.04 -5.32 t5.28 -2.12 z M119.56800000000001 5.84 l8.62 12.4 l0.04 0 l0 -12.4 l1.32 0 l0 14.16 l-1.7 0 l-8.62 -12.4 l-0.04 0 l0 12.4 l-1.32 0 l0 -14.16 l1.7 0 z M137.644 18.2 q0.4 0 0.68 0.28 t0.28 0.68 t-0.28 0.68 t-0.68 0.28 t-0.68 -0.28 t-0.28 -0.68 t0.28 -0.68 t0.68 -0.28 z M155.816 5.84 l0 14.16 l-1.32 0 l0 -14.16 l1.32 0 z M164.952 5.84 l8.62 12.4 l0.04 0 l0 -12.4 l1.32 0 l0 14.16 l-1.7 0 l-8.62 -12.4 l-0.04 0 l0 12.4 l-1.32 0 l0 -14.16 l1.7 0 z M191.668 5.84 l0 1.2 l-4.84 0 l0 12.96 l-1.32 0 l0 -12.96 l-4.84 0 l0 -1.2 l11 0 z M206.064 5.84 l0 1.2 l-7.34 0 l0 5.04 l6.88 0 l0 1.2 l-6.88 0 l0 5.52 l7.66 0 l0 1.2 l-8.98 0 l0 -14.16 l8.66 0 z M214.14 5.84 l0 12.96 l6.6 0 l0 1.2 l-7.92 0 l0 -14.16 l1.32 0 z M227.696 5.84 l0 12.96 l6.6 0 l0 1.2 l-7.92 0 l0 -14.16 l1.32 0 z M241.252 5.84 l0 14.16 l-1.32 0 l0 -14.16 l1.32 0 z M255.08800000000002 5.48 q3.2 -0.02 5.1 1.96 l-0.96 1 q-0.6 -0.74 -1.77 -1.25 t-2.37 -0.51 q-2.66 0 -4.32 1.76 t-1.68 4.48 q0 2.7 1.64 4.44 t4.38 1.8 q2.6 0 3.94 -0.84 l0 -4.76 l-3.4 0 l0 -1.2 l4.72 0 l0 6.72 q-2.3 1.28 -5.28 1.28 q-3.2 0 -5.23 -2.09 t-2.09 -5.35 q0.02 -3.28 2.06 -5.34 t5.26 -2.1 z M276.46400000000006 5.84 l0 1.2 l-7.34 0 l0 5.04 l6.88 0 l0 1.2 l-6.88 0 l0 5.52 l7.66 0 l0 1.2 l-8.98 0 l0 -14.16 l8.66 0 z M284.92 5.84 l8.62 12.4 l0.04 0 l0 -12.4 l1.32 0 l0 14.16 l-1.7 0 l-8.62 -12.4 l-0.04 0 l0 12.4 l-1.32 0 l0 -14.16 l1.7 0 z M308.736 5.48 q3.14 0 4.88 2.22 l-1.08 0.9 q-0.6 -0.9 -1.6 -1.41 t-2.2 -0.51 q-2.64 0 -4.3 1.74 t-1.7 4.5 q0 2.74 1.67 4.47 t4.33 1.77 q1.14 0 2.32 -0.57 t1.86 -1.63 l1.08 0.82 q-1.88 2.58 -5.26 2.58 q-3.28 -0.02 -5.27 -2.12 t-2.05 -5.32 q0 -3.26 2.05 -5.33 t5.27 -2.11 z M328.63200000000006 5.84 l0 1.2 l-7.34 0 l0 5.04 l6.88 0 l0 1.2 l-6.88 0 l0 5.52 l7.66 0 l0 1.2 l-8.98 0 l0 -14.16 l8.66 0 z M336.04800000000006 18.2 q0.4 0 0.68 0.28 t0.28 0.68 t-0.28 0.68 t-0.68 0.28 t-0.68 -0.28 t-0.28 -0.68 t0.28 -0.68 t0.68 -0.28 z M353.3 12.92 q0 2.7 1.66 4.45 t4.34 1.79 q2.7 0 4.34 -1.77 t1.66 -4.47 q0 -2.74 -1.64 -4.47 t-4.38 -1.77 q-2.68 0 -4.32 1.76 t-1.66 4.48 z M359.3 5.48 q2.16 0 3.82 0.95 t2.57 2.66 t0.93 3.83 q0 3.26 -2.06 5.33 t-5.26 2.11 q-3.22 0 -5.24 -2.09 t-2.08 -5.35 q0.02 -3.26 2.04 -5.32 t5.28 -2.12 z M377.35600000000005 12.08 q1.54 0 2.38 -0.69 t0.84 -1.83 t-0.82 -1.82 t-2.44 -0.7 l-2.86 0 l0 5.04 l2.9 0 z M376.956 5.84 q4.9 0 4.94 3.72 q0 3.14 -3.62 3.64 l4.12 6.8 l-1.5 0 l-3.98 -6.72 l-2.46 0 l0 6.72 l-1.32 0 l0 -14.16 l3.82 0 z M397.85200000000003 5.84 l0 1.2 l-4.84 0 l0 12.96 l-1.32 0 l0 -12.96 l-4.84 0 l0 -1.2 l11 0 z M404.908 5.84 l0 6.24 l7.92 0 l0 -6.24 l1.32 0 l0 14.16 l-1.32 0 l0 -6.72 l-7.92 0 l0 6.72 l-1.32 0 l0 -14.16 l1.32 0 z M421.984 12.92 q0 2.7 1.66 4.45 t4.34 1.79 q2.7 0 4.34 -1.77 t1.66 -4.47 q0 -2.74 -1.64 -4.47 t-4.38 -1.77 q-2.68 0 -4.32 1.76 t-1.66 4.48 z M427.984 5.48 q2.16 0 3.82 0.95 t2.57 2.66 t0.93 3.83 q0 3.26 -2.06 5.33 t-5.26 2.11 q-3.22 0 -5.24 -2.09 t-2.08 -5.35 q0.02 -3.26 2.04 -5.32 t5.28 -2.12 z M446.2 12.08 q1.28 0 2.1 -0.63 t0.84 -1.87 q0 -1.16 -0.82 -1.85 t-2.18 -0.69 l-3 0 l0 5.04 l3.06 0 z M445.86 5.84 q2.16 0 3.36 0.96 t1.24 2.78 q0 1.7 -1.16 2.69 t-3.02 1.01 l-3.14 0 l0 6.72 l-1.32 0 l0 -14.16 l4.04 0 z M465.516 5.84 l0 1.2 l-7.34 0 l0 5.04 l6.88 0 l0 1.2 l-6.88 0 l0 5.52 l7.66 0 l0 1.2 l-8.98 0 l0 -14.16 l8.66 0 z M476.23199999999997 18.8 q3.04 0 4.8 -1.54 t1.78 -4.24 q0 -2.88 -1.75 -4.42 t-4.89 -1.56 l-2.76 0 l0 11.76 l2.82 0 z M476.512 5.84 q3.56 0 5.57 1.92 t2.05 5.26 q0 1.96 -0.89 3.55 t-2.56 2.51 t-4.09 0.92 l-4.5 0 l0 -14.16 l4.42 0 z M491.96799999999996 5.84 l0 14.16 l-1.32 0 l0 -14.16 l1.32 0 z M505.8039999999999 5.48 q3.14 0 4.88 2.22 l-1.08 0.9 q-0.6 -0.9 -1.6 -1.41 t-2.2 -0.51 q-2.64 0 -4.3 1.74 t-1.7 4.5 q0 2.74 1.67 4.47 t4.33 1.77 q1.14 0 2.32 -0.57 t1.86 -1.63 l1.08 0.82 q-1.88 2.58 -5.26 2.58 q-3.28 -0.02 -5.27 -2.12 t-2.05 -5.32 q0 -3.26 2.05 -5.33 t5.27 -2.11 z M521.0799999999999 5.48 q2.46 0 3.86 1.78 l-1.14 0.82 q-1.04 -1.4 -2.76 -1.4 q-1.4 0 -2.27 0.72 t-0.91 1.96 q0 1.08 0.66 1.75 t2.3 1.13 q2.16 0.64 2.88 1.13 t1.09 1.21 t0.37 1.8 q0 1.72 -1.23 2.83 t-3.17 1.15 q-3.06 0 -4.6 -2.14 l1.26 -0.84 q1.06 1.76 3.24 1.78 q1.42 0 2.3 -0.79 t0.88 -1.99 q0 -0.7 -0.25 -1.15 t-0.76 -0.78 t-1.3 -0.6 t-1.85 -0.63 q-1.6 -0.52 -2.37 -1.46 t-0.77 -2.4 q0 -1.72 1.29 -2.8 t3.25 -1.08 z M532.376 18.2 q0.4 0 0.68 0.28 t0.28 0.68 t-0.28 0.68 t-0.68 0.28 t-0.68 -0.28 t-0.28 -0.68 t0.28 -0.68 t0.68 -0.28 z"></path></g>
			</g>
		</svg>
	